<svg
  style="width:100%"
  viewBox="0 0 22 16"
  fill="none"
  xmlns="http://www.w3.org/2000/svg"
>
  <path
    d="M21 4.93137C21 4.32555 21 4.02265 20.8802 3.88238C20.7763 3.76068 20.6203 3.69609 20.4608 3.70865C20.2769 3.72312 20.0627 3.93731 19.6343 4.36569L16 8L19.6343 11.6343C20.0627 12.0627 20.2769 12.2769 20.4608 12.2914C20.6203 12.3039 20.7763 12.2393 20.8802 12.1176C21 11.9774 21 11.6744 21 11.0686V4.93137Z"
    stroke="currentColor"
    strokeWidth="2"
    strokeLinecap="round"
    strokeLinejoin="round"
  ></path>
  <path
    d="M1 5.8C1 4.11984 1 3.27976 1.32698 2.63803C1.6146 2.07354 2.07354 1.6146 2.63803 1.32698C3.27976 1 4.11984 1 5.8 1H11.2C12.8802 1 13.7202 1 14.362 1.32698C14.9265 1.6146 15.3854 2.07354 15.673 2.63803C16 3.27976 16 4.11984 16 5.8V10.2C16 11.8802 16 12.7202 15.673 13.362C15.3854 13.9265 14.9265 14.3854 14.362 14.673C13.7202 15 12.8802 15 11.2 15H5.8C4.11984 15 3.27976 15 2.63803 14.673C2.07354 14.3854 1.6146 13.9265 1.32698 13.362C1 12.7202 1 11.8802 1 10.2V5.8Z"
    stroke="currentColor"
    strokeWidth="2"
    strokeLinecap="round"
    strokeLinejoin="round"
  ></path>
</svg>